<?xml version="1.0" encoding="UTF-8"?>
<svg id="Layer_1" xmlns="http://www.w3.org/2000/svg" viewBox="0 0 3255.71 2057.42">
  <defs>
    <style>
      .cls-1 {
        fill: #3a3a3b;
      }

      .cls-2 {
        stroke-width: 10px;
      }

      .cls-2, .cls-3 {
        fill: none;
        stroke: #3a3a3b;
        stroke-miterlimit: 1;
      }

      .cls-3 {
        stroke-width: 5px;
      }
    </style>
  </defs>
  <path class="cls-2" d="M1244.63,1415.61h464.37l50.43-50.43h205.2l52.79,52.79h204.57l63.86,63.85v484.26"/>
  <path class="cls-3" d="M1162.44,1460.55h1022.79l52.57,52.57v373.3"/>
  <path class="cls-2" d="M2151.52,1506.51h-295.97l-75.67,75.67h-307.56l-96.85,96.86"/>
  <path class="cls-2" d="M2038.16,749.43h-338.04l-63.48-63.48h-190.23l-74-74v-330.97"/>
  <path class="cls-2" d="M1269.14,559.78h-125.54l-69.29,69.3H508.01"/>
  <path class="cls-3" d="M1024.03,559.78H435.78l-78.4-78.4h-179.81"/>
  <path class="cls-3" d="M2304.46,1415.61l67.82-67.83h392.69l68.81,68.81h310.42"/>
  <path class="cls-2" d="M2350.67,1460.55l54.9-54.9h318.76l70.41,70.41"/>
  <path class="cls-3" d="M1472.32,639.13h383.23l59.36-59.35h123.25l135.62-135.62"/>
  <path class="cls-2" d="M1472.32,594.43h339.12l89.01-89.01"/>
  <path class="cls-2" d="M1664.38,1506.51h-625.03l-57.04,57.05"/>
  <path class="cls-2" d="M2585.49,1257.72h230.89l77.56,77.57h118.47"/>
  <path class="cls-2" d="M1302.84,505.42V204.38l-76.59-76.6"/>
  <path class="cls-3" d="M1244.63,360.64v-116.43l-126.15-126.15V14.42"/>
  <path class="cls-2" d="M637.99,758.29h-253.57l-83.18-83.18"/>
  <path class="cls-2" d="M2626.42,717.72h211.4l100.71-100.7h205.67"/>
  <path class="cls-3" d="M2703.01,655.27l152.76-152.76v-160.26"/>
  <path class="cls-3" d="M2816.38,653.56l141.31-141.31v-84.21l103.98-103.98"/>
  <path class="cls-3" d="M2151.52,1563.56h-251.07l-144.66,144.66"/>
  <path class="cls-3" d="M662.5,1350.68h-192.88l-245.43,245.43H31.35"/>
  <path class="cls-2" d="M912.92,1405.65h-404.91l-110,110"/>
  <path class="cls-2" d="M1973.82,639.13h263.98l78.08-78.08h269.61l109.55-109.54"/>
  <path class="cls-2" d="M2350.67,1563.56v476.05"/>
  <path class="cls-2" d="M2436.46,1515.65h217.53l168.54,168.53h189.88"/>
  <path class="cls-3" d="M2724.33,1494.25l71.96,71.96h265.38l166.14,166.14"/>
  <path class="cls-2" d="M1204.8,488.81h-352.34l-189.61-189.61h-307.28"/>
  <path class="cls-2" d="M2717.44,444.16c0,7.97-6.46,14.43-14.43,14.43s-14.42-6.46-14.42-14.43,6.46-14.42,14.42-14.42,14.43,6.46,14.43,14.42Z"/>
  <path class="cls-2" d="M355.57,299.2c0,7.97-6.46,14.43-14.43,14.43s-14.43-6.46-14.43-14.43,6.46-14.43,14.43-14.43,14.43,6.46,14.43,14.43Z"/>
  <path class="cls-2" d="M508.01,629.08c0,7.96-6.46,14.42-14.43,14.42s-14.43-6.46-14.43-14.42,6.46-14.43,14.43-14.43,14.43,6.46,14.43,14.43Z"/>
  <path class="cls-2" d="M666.84,758.29c0,7.97-6.46,14.42-14.43,14.42s-14.43-6.45-14.43-14.42,6.46-14.43,14.43-14.43,14.43,6.46,14.43,14.43Z"/>
  <path class="cls-2" d="M3173.06,617.02c0,7.97-6.46,14.43-14.43,14.43s-14.43-6.46-14.43-14.43,6.46-14.43,14.43-14.43,14.43,6.46,14.43,14.43Z"/>
  <path class="cls-2" d="M2352.06,1469.47c0,7.97-6.46,14.43-14.42,14.43s-14.43-6.46-14.43-14.43,6.46-14.43,14.43-14.43,14.42,6.46,14.42,14.43Z"/>
  <path class="cls-2" d="M3042.26,1683.42c0,7.96-6.46,14.42-14.42,14.42s-14.43-6.46-14.43-14.42,6.46-14.43,14.43-14.43,14.42,6.46,14.42,14.43Z"/>
  <path class="cls-2" d="M2300.27,1980.51c0,7.97-6.46,14.43-14.42,14.43s-14.43-6.46-14.43-14.43,6.46-14.43,14.43-14.43,14.42,6.46,14.42,14.43Z"/>
  <path class="cls-2" d="M1381.88,1684.18c0,7.97-6.46,14.43-14.42,14.43s-14.43-6.46-14.43-14.43,6.46-14.42,14.43-14.42,14.42,6.46,14.42,14.42Z"/>
  <path class="cls-2" d="M988.22,1573.29c0,7.97-6.46,14.43-14.43,14.43s-14.43-6.46-14.43-14.43,6.46-14.42,14.43-14.42,14.43,6.46,14.43,14.42Z"/>
  <path class="cls-2" d="M404.81,1525.59c0,7.96-6.46,14.42-14.43,14.42s-14.43-6.46-14.43-14.42,6.46-14.43,14.43-14.43,14.43,6.46,14.43,14.43Z"/>
  <path class="cls-2" d="M1244.63,1416.59c0,7.96-6.46,14.42-14.43,14.42s-14.42-6.46-14.42-14.42,6.46-14.43,14.42-14.43,14.43,6.46,14.43,14.43Z"/>
  <path class="cls-2" d="M2365.1,1549.13c0,7.97-6.46,14.43-14.43,14.43s-14.42-6.46-14.42-14.43,6.46-14.43,14.42-14.43,14.43,6.46,14.43,14.43Z"/>
  <path class="cls-2" d="M3041.26,1335.29c0,7.96-6.46,14.42-14.42,14.42s-14.43-6.46-14.43-14.42,6.46-14.43,14.43-14.43,14.42,6.46,14.42,14.43Z"/>
  <path class="cls-2" d="M1227.65,114.36c0,7.97-6.46,14.42-14.42,14.42s-14.43-6.45-14.43-14.42,6.46-14.43,14.43-14.43,14.42,6.46,14.42,14.43Z"/>
  <path class="cls-2" d="M1317.27,520.58c0,7.97-6.46,14.43-14.43,14.43s-14.42-6.46-14.42-14.43,6.46-14.42,14.42-14.42,14.43,6.46,14.43,14.42Z"/>
  <path class="cls-2" d="M2067.02,749.43c0,7.96-6.46,14.42-14.43,14.42s-14.43-6.46-14.43-14.42,6.46-14.43,14.43-14.43,14.43,6.46,14.43,14.43Z"/>
  <path class="cls-2" d="M1475.26,594.43c0,7.97-6.46,14.43-14.43,14.43s-14.42-6.46-14.42-14.43,6.45-14.43,14.42-14.43,14.43,6.46,14.43,14.43Z"/>
  <path class="cls-1" d="M1991.63,639.13c0,9.84-7.97,17.81-17.81,17.81s-17.81-7.97-17.81-17.81,7.98-17.8,17.81-17.8,17.81,7.97,17.81,17.8"/>
  <path class="cls-1" d="M1918.26,505.42c0,9.83-7.97,17.8-17.81,17.8s-17.81-7.97-17.81-17.8,7.98-17.81,17.81-17.81,17.81,7.97,17.81,17.81"/>
  <path class="cls-1" d="M319.05,675.11c0,9.83-7.97,17.81-17.81,17.81s-17.81-7.98-17.81-17.81,7.98-17.81,17.81-17.81,17.81,7.97,17.81,17.81"/>
  <path class="cls-1" d="M1222.61,488.81c0,9.83-7.97,17.81-17.81,17.81s-17.81-7.98-17.81-17.81,7.98-17.81,17.81-17.81,17.81,7.97,17.81,17.81"/>
  <path class="cls-1" d="M2644.23,717.72c0,9.84-7.98,17.81-17.81,17.81s-17.81-7.97-17.81-17.81,7.97-17.8,17.81-17.8,17.81,7.97,17.81,17.8"/>
  <path class="cls-1" d="M2603.3,1257.72c0,9.84-7.97,17.81-17.81,17.81s-17.8-7.97-17.8-17.81,7.97-17.8,17.8-17.8,17.81,7.97,17.81,17.8"/>
  <path class="cls-1" d="M2454.27,1515.65c0,9.83-7.97,17.81-17.81,17.81s-17.81-7.98-17.81-17.81,7.97-17.81,17.81-17.81,17.81,7.97,17.81,17.81"/>
  <path class="cls-1" d="M2369.87,2039.61c0,9.84-7.97,17.81-17.81,17.81s-17.8-7.97-17.8-17.81,7.97-17.8,17.8-17.8,17.81,7.97,17.81,17.8"/>
  <path class="cls-1" d="M2169.33,1506.51c0,9.83-7.97,17.81-17.81,17.81s-17.8-7.98-17.8-17.81,7.97-17.81,17.8-17.81,17.81,7.97,17.81,17.81"/>
  <path class="cls-1" d="M1682.18,1506.51c0,9.83-7.97,17.81-17.8,17.81s-17.81-7.98-17.81-17.81,7.97-17.81,17.81-17.81,17.8,7.97,17.8,17.81"/>
  <path class="cls-1" d="M930.73,1405.65c0,9.83-7.98,17.81-17.81,17.81s-17.81-7.98-17.81-17.81,7.97-17.81,17.81-17.81,17.81,7.97,17.81,17.81"/>
  <path class="cls-1" d="M2811.98,1477.45c0,9.84-7.98,17.81-17.81,17.81s-17.81-7.97-17.81-17.81,7.97-17.8,17.81-17.8,17.81,7.97,17.81,17.8"/>
  <path class="cls-1" d="M1282.35,559.78c0,9.84-7.97,17.81-17.8,17.81s-17.81-7.97-17.81-17.81,7.97-17.8,17.81-17.8,17.8,7.97,17.8,17.8"/>
  <path class="cls-1" d="M1390.22,280.98c0,9.83-7.98,17.8-17.81,17.8s-17.81-7.97-17.81-17.8,7.97-17.81,17.81-17.81,17.81,7.97,17.81,17.81"/>
  <path class="cls-3" d="M1052.89,559.78c0,7.97-6.46,14.43-14.43,14.43s-14.43-6.46-14.43-14.43,6.46-14.42,14.43-14.42,14.43,6.46,14.43,14.42Z"/>
  <path class="cls-3" d="M2706.61,667.37c0,7.97-6.46,14.43-14.43,14.43s-14.42-6.46-14.42-14.43,6.46-14.43,14.42-14.43,14.43,6.46,14.43,14.43Z"/>
  <path class="cls-3" d="M2822.02,664.16c0,7.96-6.46,14.42-14.43,14.42s-14.42-6.46-14.42-14.42,6.46-14.43,14.42-14.43,14.43,6.46,14.43,14.43Z"/>
  <path class="cls-3" d="M3253.21,1741.83c0,7.97-6.46,14.43-14.42,14.43s-14.43-6.46-14.43-14.43,6.46-14.43,14.43-14.43,14.42,6.46,14.42,14.43Z"/>
  <path class="cls-3" d="M2180.38,1563.56c0,7.96-6.46,14.42-14.43,14.42s-14.43-6.46-14.43-14.42,6.46-14.43,14.43-14.43,14.43,6.46,14.43,14.43Z"/>
  <path class="cls-3" d="M31.35,1596.11c0,7.97-6.46,14.43-14.43,14.43s-14.43-6.46-14.43-14.43,6.46-14.43,14.43-14.43,14.43,6.46,14.43,14.43Z"/>
  <path class="cls-3" d="M1259.06,375.06c0,7.97-6.46,14.43-14.43,14.43s-14.43-6.46-14.43-14.43,6.46-14.42,14.43-14.42,14.43,6.45,14.43,14.42Z"/>
  <path class="cls-3" d="M2199.61,431.74c0,7.96-6.46,14.42-14.43,14.42s-14.42-6.46-14.42-14.42,6.46-14.43,14.42-14.43,14.43,6.46,14.43,14.43Z"/>
  <path class="cls-1" d="M1486.75,639.13c0,7.97-6.46,14.43-14.43,14.43s-14.42-6.46-14.42-14.43,6.46-14.42,14.42-14.42,14.43,6.46,14.43,14.42"/>
  <path class="cls-1" d="M192,481.38c0,7.97-6.46,14.43-14.43,14.43s-14.43-6.46-14.43-14.43,6.46-14.42,14.43-14.42,14.43,6.46,14.43,14.42"/>
  <path class="cls-1" d="M3076.1,324.06c0,7.97-6.46,14.42-14.43,14.42s-14.43-6.45-14.43-14.42,6.46-14.43,14.43-14.43,14.43,6.46,14.43,14.43"/>
  <path class="cls-1" d="M2870.2,342.25c0,7.97-6.46,14.43-14.43,14.43s-14.43-6.46-14.43-14.43,6.46-14.42,14.43-14.42,14.43,6.46,14.43,14.42"/>
  <path class="cls-1" d="M2318.89,1416.59c0,7.96-6.46,14.42-14.43,14.42s-14.43-6.46-14.43-14.42,6.46-14.43,14.43-14.43,14.43,6.46,14.43,14.43"/>
  <path class="cls-1" d="M2738.76,1494.25c0,7.97-6.46,14.43-14.43,14.43s-14.42-6.46-14.42-14.43,6.45-14.42,14.42-14.42,14.43,6.46,14.43,14.42"/>
  <path class="cls-1" d="M2252.22,1886.42c0,7.97-6.46,14.43-14.42,14.43s-14.43-6.46-14.43-14.43,6.46-14.42,14.43-14.42,14.42,6.46,14.42,14.42"/>
  <path class="cls-1" d="M1770.22,1708.22c0,7.97-6.46,14.43-14.43,14.43s-14.43-6.46-14.43-14.43,6.46-14.43,14.43-14.43,14.43,6.46,14.43,14.43"/>
  <path class="cls-1" d="M1176.87,1460.55c0,7.97-6.46,14.43-14.43,14.43s-14.42-6.46-14.42-14.43,6.46-14.43,14.42-14.43,14.43,6.46,14.43,14.43"/>
  <path class="cls-1" d="M676.93,1350.68c0,7.97-6.46,14.43-14.43,14.43s-14.43-6.46-14.43-14.43,6.46-14.43,14.43-14.43,14.43,6.46,14.43,14.43"/>
  <path class="cls-1" d="M3158.63,1416.59c0,7.96-6.46,14.42-14.43,14.42s-14.42-6.46-14.42-14.42,6.46-14.43,14.42-14.43,14.43,6.46,14.43,14.43"/>
  <path class="cls-1" d="M1132.9,14.42c0,7.97-6.46,14.43-14.42,14.43s-14.43-6.46-14.43-14.43,6.46-14.42,14.43-14.42,14.42,6.46,14.42,14.42"/>
  <path class="cls-2" d="M577.68,1024.92h592.35l81.53,81.53h1360.51"/>
  <path class="cls-2" d="M1390.62,1012.47l139.57-139.56h673.37l116.92-116.93"/>
  <path class="cls-2" d="M1623.58,1192.74l-94.16,94.15H308.07l-105.82,105.82"/>
  <path class="cls-2" d="M1995.22,1003.75h1066.21l114.34-114.34"/>
  <path class="cls-3" d="M1472.32,1228.06H99.73"/>
  <path class="cls-3" d="M2959.3,1057.32h-1180.59l-68.61-68.61h-180.58"/>
  <path class="cls-3" d="M1737.86,1166.79h1102.97l94.59,94.58"/>
  <path class="cls-3" d="M1129.17,1090.8H279.47l-58.62,58.63"/>
  <path class="cls-3" d="M790.07,713.89h328.18l58.62-58.62"/>
  <path class="cls-3" d="M1895.81,1275.9h328.17l58.63-58.62"/>
  <path class="cls-3" d="M1108.75,965.57H177.34l-101.82-101.82"/>
  <path class="cls-2" d="M259.05,896.75h943.66l118.39-118.4"/>
  <path class="cls-3" d="M1623.58,926.1h825.08l65.9-65.9h497.85"/>
  <path class="cls-3" d="M2113.74,1327.72h142.98l69.99-70h158.72"/>
  <path class="cls-3" d="M536.86,833.85h142.98l70-70h158.71"/>
  <path class="cls-3" d="M2318,869.88h73.47l92.75-92.74v-92.56"/>
  <path class="cls-3" d="M1529.52,741.2h-73.48l-92.74,92.74v92.56"/>
  <path class="cls-2" d="M385.68,1160.24h674.05"/>
  <path class="cls-3" d="M949.54,1350.68h674.04"/>
  <path class="cls-2" d="M2554.88,798.85h339.06l81.13-81.13"/>
  <path class="cls-2" d="M2554.88,937.76h404.42"/>
  <path class="cls-3" d="M1446.41,869.88l64.04-64.04h603.29"/>
  <path class="cls-3" d="M82.5,851.98c0,7.96-6.46,14.42-14.43,14.42s-14.43-6.46-14.43-14.42,6.46-14.43,14.43-14.43,14.43,6.46,14.43,14.43Z"/>
  <path class="cls-3" d="M1501.18,1228.06c0,7.97-6.46,14.43-14.43,14.43s-14.43-6.46-14.43-14.43,6.46-14.42,14.43-14.42,14.43,6.46,14.43,14.42Z"/>
  <path class="cls-3" d="M1737.86,1166.79c0,7.96-6.46,14.42-14.43,14.42s-14.43-6.46-14.43-14.42,6.46-14.43,14.43-14.43,14.43,6.46,14.43,14.43Z"/>
  <path class="cls-3" d="M2304.46,1207.55c0,7.96-6.46,14.42-14.43,14.42s-14.42-6.46-14.42-14.42,6.45-14.43,14.42-14.43,14.43,6.46,14.43,14.43Z"/>
  <path class="cls-3" d="M2113.74,1327.72c0,7.97-6.46,14.43-14.43,14.43s-14.42-6.46-14.42-14.43,6.46-14.43,14.42-14.43,14.43,6.46,14.43,14.43Z"/>
  <path class="cls-3" d="M1652.43,1350.68c0,7.97-6.46,14.43-14.42,14.43s-14.43-6.46-14.43-14.43,6.46-14.43,14.43-14.43,14.42,6.46,14.42,14.43Z"/>
  <path class="cls-3" d="M536.86,833.85c0,7.97-6.46,14.43-14.43,14.43s-14.43-6.46-14.43-14.43,6.46-14.43,14.43-14.43,14.43,6.46,14.43,14.43Z"/>
  <path class="cls-3" d="M937.41,763.85c0,7.97-6.46,14.43-14.43,14.43s-14.43-6.46-14.43-14.43,6.46-14.42,14.43-14.42,14.43,6.45,14.43,14.42Z"/>
  <path class="cls-3" d="M1558.37,741.2c0,7.97-6.46,14.42-14.43,14.42s-14.42-6.45-14.42-14.42,6.45-14.43,14.42-14.43,14.43,6.46,14.43,14.43Z"/>
  <path class="cls-3" d="M2314.61,869.88c0,7.97-6.46,14.43-14.42,14.43s-14.43-6.46-14.43-14.43,6.46-14.43,14.43-14.43,14.42,6.46,14.42,14.43Z"/>
  <path class="cls-3" d="M3041.26,860.2c0,7.97-6.46,14.43-14.42,14.43s-14.43-6.46-14.43-14.43,6.46-14.42,14.43-14.42,14.42,6.46,14.42,14.42Z"/>
  <path class="cls-3" d="M2142.59,805.84c0,7.97-6.46,14.43-14.42,14.43s-14.43-6.46-14.43-14.43,6.46-14.43,14.43-14.43,14.42,6.46,14.42,14.43Z"/>
  <path class="cls-3" d="M2989.49,1057.32c0,7.96-6.45,14.42-14.42,14.42s-14.43-6.46-14.43-14.42,6.46-14.43,14.43-14.43,14.42,6.46,14.42,14.43Z"/>
  <path class="cls-3" d="M1623.73,926.1c0,7.97-6.46,14.43-14.43,14.43s-14.42-6.46-14.42-14.43,6.46-14.43,14.42-14.43,14.43,6.46,14.43,14.43Z"/>
  <path class="cls-1" d="M114.16,1228.06c0,7.97-6.46,14.43-14.43,14.43s-14.43-6.46-14.43-14.43,6.46-14.42,14.43-14.42,14.43,6.46,14.43,14.42"/>
  <path class="cls-1" d="M235.28,1149.43c0,7.96-6.46,14.42-14.43,14.42s-14.43-6.46-14.43-14.42,6.46-14.43,14.43-14.43,14.43,6.46,14.43,14.43"/>
  <path class="cls-1" d="M800.45,713.89c0,7.97-6.46,14.43-14.42,14.43s-14.43-6.46-14.43-14.43,6.46-14.43,14.43-14.43,14.42,6.46,14.42,14.43"/>
  <path class="cls-1" d="M1191.3,653.56c0,7.97-6.46,14.43-14.43,14.43s-14.43-6.46-14.43-14.43,6.46-14.43,14.43-14.43,14.43,6.46,14.43,14.43"/>
  <path class="cls-1" d="M1123.18,965.57c0,7.97-6.46,14.43-14.43,14.43s-14.43-6.46-14.43-14.43,6.46-14.43,14.43-14.43,14.43,6.46,14.43,14.43"/>
  <path class="cls-1" d="M1143.6,1086.37c0,7.97-6.46,14.42-14.43,14.42s-14.42-6.45-14.42-14.42,6.46-14.43,14.42-14.43,14.43,6.46,14.43,14.43"/>
  <path class="cls-1" d="M963.96,1350.68c0,7.97-6.45,14.43-14.42,14.43s-14.43-6.46-14.43-14.43,6.46-14.43,14.43-14.43,14.42,6.46,14.42,14.43"/>
  <path class="cls-1" d="M1377.72,926.5c0,7.97-6.46,14.43-14.42,14.43s-14.43-6.46-14.43-14.43,6.46-14.43,14.43-14.43,14.42,6.46,14.42,14.43"/>
  <path class="cls-1" d="M2499.86,684.58c0,7.97-6.46,14.42-14.43,14.42s-14.43-6.45-14.43-14.42,6.46-14.43,14.43-14.43,14.43,6.46,14.43,14.43"/>
  <path class="cls-1" d="M2949.84,1261.6c0,7.97-6.45,14.43-14.42,14.43s-14.43-6.46-14.43-14.43,6.46-14.43,14.43-14.43,14.42,6.46,14.42,14.43"/>
  <path class="cls-1" d="M1543.94,988.71c0,7.96-6.46,14.42-14.42,14.42s-14.43-6.46-14.43-14.42,6.46-14.43,14.43-14.43,14.42,6.46,14.42,14.43"/>
  <path class="cls-1" d="M1910.24,1276.03c0,7.96-6.46,14.42-14.43,14.42s-14.43-6.46-14.43-14.42,6.46-14.43,14.43-14.43,14.43,6.46,14.43,14.43"/>
  <path class="cls-1" d="M2499.86,1257.72c0,7.97-6.46,14.43-14.43,14.43s-14.43-6.46-14.43-14.43,6.46-14.42,14.43-14.42,14.43,6.46,14.43,14.42"/>
  <path class="cls-1" d="M1460.83,869.88c0,7.97-6.46,14.43-14.42,14.43s-14.43-6.46-14.43-14.43,6.46-14.43,14.43-14.43,14.42,6.46,14.42,14.43"/>
  <path class="cls-2" d="M384.43,1160.24c0,7.97-6.46,14.42-14.43,14.42s-14.43-6.45-14.43-14.42,6.46-14.43,14.43-14.43,14.43,6.46,14.43,14.43Z"/>
  <path class="cls-2" d="M1398.77,1023.01c0,7.97-6.45,14.43-14.42,14.43s-14.43-6.46-14.43-14.43,6.46-14.42,14.43-14.42,14.42,6.45,14.42,14.42Z"/>
  <path class="cls-2" d="M2989.49,937.76c0,7.97-6.45,14.43-14.42,14.43s-14.43-6.46-14.43-14.43,6.46-14.43,14.43-14.43,14.42,6.46,14.42,14.43Z"/>
  <path class="cls-2" d="M2551.5,937.76c0,7.97-6.46,14.43-14.43,14.43s-14.43-6.46-14.43-14.43,6.46-14.43,14.43-14.43,14.43,6.46,14.43,14.43Z"/>
  <path class="cls-2" d="M1084.37,1160.24c0,7.97-6.46,14.42-14.43,14.42s-14.43-6.45-14.43-14.42,6.46-14.43,14.43-14.43,14.43,6.46,14.43,14.43Z"/>
  <path class="cls-2" d="M206.42,1401.18c0,7.97-6.46,14.43-14.43,14.43s-14.43-6.46-14.43-14.43,6.46-14.43,14.43-14.43,14.43,6.46,14.43,14.43Z"/>
  <path class="cls-1" d="M581.07,1024.92c0,9.84-7.97,17.81-17.81,17.81s-17.81-7.97-17.81-17.81,7.97-17.81,17.81-17.81,17.81,7.97,17.81,17.81"/>
  <path class="cls-1" d="M1338.91,778.35c0,9.84-7.97,17.81-17.81,17.81s-17.81-7.97-17.81-17.81,7.98-17.81,17.81-17.81,17.81,7.98,17.81,17.81"/>
  <path class="cls-1" d="M2013.03,1003.13c0,9.84-7.98,17.81-17.81,17.81s-17.81-7.97-17.81-17.81,7.97-17.81,17.81-17.81,17.81,7.98,17.81,17.81"/>
  <path class="cls-1" d="M2572.69,798.85c0,9.84-7.98,17.81-17.81,17.81s-17.81-7.97-17.81-17.81,7.97-17.81,17.81-17.81,17.81,7.98,17.81,17.81"/>
  <path class="cls-1" d="M2992.88,717.72c0,9.84-7.98,17.81-17.81,17.81s-17.81-7.97-17.81-17.81,7.97-17.8,17.81-17.8,17.81,7.97,17.81,17.8"/>
  <path class="cls-1" d="M3191.58,891.15c0,9.84-7.97,17.81-17.81,17.81s-17.81-7.97-17.81-17.81,7.98-17.81,17.81-17.81,17.81,7.98,17.81,17.81"/>
  <path class="cls-1" d="M2629.88,1106.45c0,9.84-7.98,17.81-17.81,17.81s-17.81-7.97-17.81-17.81,7.97-17.81,17.81-17.81,17.81,7.97,17.81,17.81"/>
  <path class="cls-1" d="M2335.8,758.29c0,9.83-7.97,17.81-17.8,17.81s-17.81-7.98-17.81-17.81,7.97-17.81,17.81-17.81,17.8,7.97,17.8,17.81"/>
  <path class="cls-1" d="M1641.39,1192.74c0,9.83-7.97,17.81-17.81,17.81s-17.81-7.98-17.81-17.81,7.98-17.81,17.81-17.81,17.81,7.97,17.81,17.81"/>
  <path class="cls-1" d="M276.86,896.75c0,9.83-7.97,17.8-17.81,17.8s-17.81-7.97-17.81-17.8,7.97-17.81,17.81-17.81,17.81,7.97,17.81,17.81"/>
</svg>